G75*
G70*
%OFA0B0*%
%FSLAX24Y24*%
%IPPOS*%
%LPD*%
%AMOC8*
5,1,8,0,0,1.08239X$1,22.5*
%
%ADD10C,0.0150*%
%ADD11C,0.0300*%
%ADD12C,0.0100*%
D10*
X011814Y017941D02*
X011956Y017941D01*
X012098Y018083D01*
X012098Y018792D01*
X012098Y018225D02*
X011672Y018225D01*
X011530Y018367D01*
X011530Y018792D01*
X011177Y018650D02*
X011177Y018225D01*
X011177Y018650D02*
X011035Y018792D01*
X010610Y018792D01*
X010610Y018225D01*
X010279Y018225D02*
X009996Y018225D01*
X010138Y018225D02*
X010138Y018792D01*
X009996Y018792D01*
X010138Y019076D02*
X010138Y019218D01*
X009642Y019076D02*
X009075Y019076D01*
X009359Y019076D02*
X009359Y018225D01*
X013372Y018225D02*
X013372Y019076D01*
X013797Y019076D01*
X013939Y018934D01*
X013939Y018650D01*
X013797Y018509D01*
X013372Y018509D01*
X014293Y018509D02*
X014576Y018792D01*
X014718Y018792D01*
X015060Y018650D02*
X015060Y018367D01*
X015202Y018225D01*
X015485Y018225D01*
X015627Y018367D01*
X015627Y018650D01*
X015485Y018792D01*
X015202Y018792D01*
X015060Y018650D01*
X014293Y018792D02*
X014293Y018225D01*
X015981Y018367D02*
X016123Y018225D01*
X016548Y018225D01*
X016548Y018083D02*
X016548Y018792D01*
X016123Y018792D01*
X015981Y018650D01*
X015981Y018367D01*
X016264Y017941D02*
X016406Y017941D01*
X016548Y018083D01*
X016902Y018225D02*
X016902Y018792D01*
X017185Y018792D02*
X017327Y018792D01*
X017185Y018792D02*
X016902Y018509D01*
X017669Y018367D02*
X017811Y018509D01*
X018236Y018509D01*
X018236Y018650D02*
X018236Y018225D01*
X017811Y018225D01*
X017669Y018367D01*
X017811Y018792D02*
X018094Y018792D01*
X018236Y018650D01*
X018590Y018792D02*
X018732Y018792D01*
X018873Y018650D01*
X019015Y018792D01*
X019157Y018650D01*
X019157Y018225D01*
X018873Y018225D02*
X018873Y018650D01*
X018590Y018792D02*
X018590Y018225D01*
X019511Y018225D02*
X019511Y018792D01*
X019652Y018792D01*
X019794Y018650D01*
X019936Y018792D01*
X020078Y018650D01*
X020078Y018225D01*
X019794Y018225D02*
X019794Y018650D01*
X020431Y018650D02*
X020573Y018792D01*
X020857Y018792D01*
X020999Y018650D01*
X020999Y018509D01*
X020431Y018509D01*
X020431Y018650D02*
X020431Y018367D01*
X020573Y018225D01*
X020857Y018225D01*
X021352Y018225D02*
X021352Y018792D01*
X021352Y018509D02*
X021636Y018792D01*
X021778Y018792D01*
X023040Y019076D02*
X023607Y019076D01*
X023324Y019076D02*
X023324Y018225D01*
X023961Y018367D02*
X023961Y018650D01*
X024103Y018792D01*
X024386Y018792D01*
X024528Y018650D01*
X024528Y018509D01*
X023961Y018509D01*
X023961Y018367D02*
X024103Y018225D01*
X024386Y018225D01*
X024882Y018225D02*
X025307Y018225D01*
X025449Y018367D01*
X025307Y018509D01*
X025024Y018509D01*
X024882Y018650D01*
X025024Y018792D01*
X025449Y018792D01*
X025803Y018792D02*
X026086Y018792D01*
X025944Y018934D02*
X025944Y018367D01*
X026086Y018225D01*
X026416Y018225D02*
X026842Y018225D01*
X026984Y018367D01*
X026984Y018650D01*
X026842Y018792D01*
X026416Y018792D01*
X026416Y019076D02*
X026416Y018225D01*
X027337Y018367D02*
X027337Y018650D01*
X027479Y018792D01*
X027763Y018792D01*
X027904Y018650D01*
X027904Y018509D01*
X027337Y018509D01*
X027337Y018367D02*
X027479Y018225D01*
X027763Y018225D01*
X028258Y018367D02*
X028258Y018650D01*
X028400Y018792D01*
X028825Y018792D01*
X028825Y019076D02*
X028825Y018225D01*
X028400Y018225D01*
X028258Y018367D01*
D11*
X028934Y016001D02*
X028934Y014300D01*
X029501Y014300D02*
X029501Y016001D01*
X029501Y015434D02*
X028650Y015434D01*
X028650Y014867D02*
X029784Y014867D01*
X029784Y015434D02*
X029501Y015434D01*
X030492Y015718D02*
X030775Y016001D01*
X031342Y016001D01*
X031626Y015718D01*
X031626Y015434D01*
X031342Y015151D01*
X031626Y014867D01*
X031626Y014584D01*
X031342Y014300D01*
X030775Y014300D01*
X030492Y014584D01*
X031059Y015151D02*
X031342Y015151D01*
X032333Y015434D02*
X032333Y015718D01*
X032617Y016001D01*
X033184Y016001D01*
X033467Y015718D01*
X033467Y015434D01*
X033184Y015151D01*
X032617Y015151D01*
X032333Y015434D01*
X032617Y015151D02*
X032333Y014867D01*
X032333Y014584D01*
X032617Y014300D01*
X033184Y014300D01*
X033467Y014584D01*
X033467Y014867D01*
X033184Y015151D01*
X034175Y015151D02*
X034175Y014584D01*
X034458Y014300D01*
X035025Y014300D01*
X035309Y014584D01*
X035309Y014867D01*
X035025Y015151D01*
X034175Y015151D01*
X034742Y015718D01*
X035309Y016001D01*
D12*
X019650Y004100D02*
X019350Y004100D01*
X019650Y004100D02*
X019600Y004400D01*
X019636Y004110D02*
X019592Y004132D01*
X019550Y004158D01*
X019510Y004188D01*
X019473Y004220D01*
X019438Y004255D01*
X019406Y004293D01*
X019377Y004333D01*
X019352Y004375D01*
X019330Y004420D01*
X019312Y004466D01*
X019297Y004513D01*
X019286Y004561D01*
X019279Y004610D01*
X019275Y004659D01*
X019276Y004708D01*
X019280Y004758D01*
X019289Y004806D01*
X019301Y004854D01*
X019317Y004901D01*
X019336Y004946D01*
X019359Y004990D01*
X019386Y005032D01*
X019416Y005071D01*
X019448Y005108D01*
X019484Y005142D01*
X019522Y005174D01*
X019562Y005202D01*
X019605Y005227D01*
X019650Y005250D02*
X019300Y005250D01*
X019650Y005250D02*
X019550Y004950D01*
X023350Y014600D02*
X023650Y014600D01*
X023600Y014900D01*
X023636Y014610D02*
X023592Y014632D01*
X023550Y014658D01*
X023510Y014688D01*
X023473Y014720D01*
X023438Y014755D01*
X023406Y014793D01*
X023377Y014833D01*
X023352Y014875D01*
X023330Y014920D01*
X023312Y014966D01*
X023297Y015013D01*
X023286Y015061D01*
X023279Y015110D01*
X023275Y015159D01*
X023276Y015208D01*
X023280Y015258D01*
X023289Y015306D01*
X023301Y015354D01*
X023317Y015401D01*
X023336Y015446D01*
X023359Y015490D01*
X023386Y015532D01*
X023416Y015571D01*
X023448Y015608D01*
X023484Y015642D01*
X023522Y015674D01*
X023562Y015702D01*
X023605Y015727D01*
X023650Y015750D02*
X023300Y015750D01*
X023650Y015750D02*
X023550Y015450D01*
X011636Y014610D02*
X011592Y014632D01*
X011550Y014658D01*
X011510Y014688D01*
X011473Y014720D01*
X011438Y014755D01*
X011406Y014793D01*
X011377Y014833D01*
X011352Y014875D01*
X011330Y014920D01*
X011312Y014966D01*
X011297Y015013D01*
X011286Y015061D01*
X011279Y015110D01*
X011275Y015159D01*
X011276Y015208D01*
X011280Y015258D01*
X011289Y015306D01*
X011301Y015354D01*
X011317Y015401D01*
X011336Y015446D01*
X011359Y015490D01*
X011386Y015532D01*
X011416Y015571D01*
X011448Y015608D01*
X011484Y015642D01*
X011522Y015674D01*
X011562Y015702D01*
X011605Y015727D01*
X011650Y015750D02*
X011300Y015750D01*
X011650Y015750D02*
X011550Y015450D01*
X011600Y014900D02*
X011650Y014600D01*
X011350Y014600D01*
M02*
