%
M48
M72
T01C0.0200
T02C0.0400
T03C0.0440
T04C0.1100
%
T01
X24550Y14713
X25500Y15163
X26500Y15913
X24900Y16263
X25800Y17713
X17500Y22113
T02
X15500Y24913
X14500Y24913
X13500Y24913
X13500Y25913
X14500Y25913
X15500Y25913
T03
X13500Y14413
X16500Y10413
X17500Y10413
X18500Y10413
X18500Y9413
X17500Y9413
X16500Y9413
X24000Y10413
X24000Y11413
X24000Y12413
X24000Y13413
X27000Y13413
X27000Y12413
X27000Y11413
X27000Y10413
T04
X7500Y3413
X7500Y19913
X7500Y25413
X34500Y25413
X34500Y19913
X34500Y3413
M30
