G75*
G70*
%OFA0B0*%
%FSLAX24Y24*%
%IPPOS*%
%LPD*%
%AMOC8*
5,1,8,0,0,1.08239X$1,22.5*
%
%ADD10C,0.0110*%
%ADD11C,0.0080*%
D10*
X013252Y005468D02*
X013252Y006058D01*
X013055Y006058D02*
X013449Y006058D01*
X013700Y005861D02*
X013798Y005861D01*
X013798Y005468D01*
X013700Y005468D02*
X013896Y005468D01*
X014129Y005468D02*
X014129Y005861D01*
X014425Y005861D01*
X014523Y005763D01*
X014523Y005468D01*
X014774Y005566D02*
X014872Y005468D01*
X015167Y005468D01*
X015167Y005369D02*
X015069Y005271D01*
X014971Y005271D01*
X015167Y005369D02*
X015167Y005861D01*
X014774Y005861D02*
X014774Y005566D01*
X013798Y006058D02*
X013798Y006157D01*
X016063Y006058D02*
X016063Y005468D01*
X016063Y005664D02*
X016358Y005664D01*
X016457Y005763D01*
X016457Y005960D01*
X016358Y006058D01*
X016063Y006058D01*
X016707Y005861D02*
X016707Y005468D01*
X016707Y005664D02*
X016904Y005861D01*
X017003Y005861D01*
X017245Y005763D02*
X017245Y005566D01*
X017343Y005468D01*
X017540Y005468D01*
X017638Y005566D01*
X017638Y005763D01*
X017540Y005861D01*
X017343Y005861D01*
X017245Y005763D01*
X017889Y005763D02*
X017889Y005566D01*
X017988Y005468D01*
X018283Y005468D01*
X018283Y005369D02*
X018283Y005861D01*
X017988Y005861D01*
X017889Y005763D01*
X018086Y005271D02*
X018184Y005271D01*
X018283Y005369D01*
X018534Y005468D02*
X018534Y005861D01*
X018731Y005861D02*
X018829Y005861D01*
X018731Y005861D02*
X018534Y005664D01*
X019071Y005566D02*
X019169Y005664D01*
X019464Y005664D01*
X019464Y005763D02*
X019464Y005468D01*
X019169Y005468D01*
X019071Y005566D01*
X019169Y005861D02*
X019366Y005861D01*
X019464Y005763D01*
X019715Y005861D02*
X019814Y005861D01*
X019912Y005763D01*
X020011Y005861D01*
X020109Y005763D01*
X020109Y005468D01*
X019912Y005468D02*
X019912Y005763D01*
X019715Y005861D02*
X019715Y005468D01*
X020360Y005468D02*
X020360Y005861D01*
X020458Y005861D01*
X020557Y005763D01*
X020655Y005861D01*
X020754Y005763D01*
X020754Y005468D01*
X020557Y005468D02*
X020557Y005763D01*
X021004Y005763D02*
X021004Y005566D01*
X021103Y005468D01*
X021300Y005468D01*
X021398Y005664D02*
X021004Y005664D01*
X021004Y005763D02*
X021103Y005861D01*
X021300Y005861D01*
X021398Y005763D01*
X021398Y005664D01*
X021649Y005664D02*
X021846Y005861D01*
X021944Y005861D01*
X021649Y005861D02*
X021649Y005468D01*
X022831Y006058D02*
X023224Y006058D01*
X023028Y006058D02*
X023028Y005468D01*
X023475Y005566D02*
X023475Y005763D01*
X023574Y005861D01*
X023770Y005861D01*
X023869Y005763D01*
X023869Y005664D01*
X023475Y005664D01*
X023475Y005566D02*
X023574Y005468D01*
X023770Y005468D01*
X024120Y005468D02*
X024415Y005468D01*
X024513Y005566D01*
X024415Y005664D01*
X024218Y005664D01*
X024120Y005763D01*
X024218Y005861D01*
X024513Y005861D01*
X024764Y005861D02*
X024961Y005861D01*
X024863Y005960D02*
X024863Y005566D01*
X024961Y005468D01*
X025194Y005468D02*
X025489Y005468D01*
X025588Y005566D01*
X025588Y005763D01*
X025489Y005861D01*
X025194Y005861D01*
X025194Y006058D02*
X025194Y005468D01*
X025839Y005566D02*
X025839Y005763D01*
X025937Y005861D01*
X026134Y005861D01*
X026232Y005763D01*
X026232Y005664D01*
X025839Y005664D01*
X025839Y005566D02*
X025937Y005468D01*
X026134Y005468D01*
X026483Y005566D02*
X026483Y005763D01*
X026582Y005861D01*
X026877Y005861D01*
X026877Y006058D02*
X026877Y005468D01*
X026582Y005468D01*
X026483Y005566D01*
X027555Y005664D02*
X027949Y005664D01*
X027949Y005861D02*
X027850Y005861D01*
X027555Y005861D01*
X027653Y006058D02*
X027653Y005468D01*
X027850Y005468D02*
X027850Y006058D01*
X028200Y005960D02*
X028298Y006058D01*
X028495Y006058D01*
X028593Y005960D01*
X028593Y005861D01*
X028495Y005763D01*
X028593Y005664D01*
X028593Y005566D01*
X028495Y005468D01*
X028298Y005468D01*
X028200Y005566D01*
X028396Y005763D02*
X028495Y005763D01*
X028844Y005861D02*
X028844Y005960D01*
X028943Y006058D01*
X029139Y006058D01*
X029238Y005960D01*
X029238Y005861D01*
X029139Y005763D01*
X028943Y005763D01*
X028844Y005861D01*
X028943Y005763D02*
X028844Y005664D01*
X028844Y005566D01*
X028943Y005468D01*
X029139Y005468D01*
X029238Y005566D01*
X029238Y005664D01*
X029139Y005763D01*
X029489Y005763D02*
X029489Y005566D01*
X029587Y005468D01*
X029784Y005468D01*
X029882Y005566D01*
X029882Y005664D01*
X029784Y005763D01*
X029489Y005763D01*
X029685Y005960D01*
X029882Y006058D01*
X018445Y025267D02*
X018248Y025464D01*
X018051Y025267D01*
X018051Y025858D01*
X017800Y025858D02*
X017800Y025267D01*
X017702Y025562D02*
X017407Y025858D01*
X017156Y025858D02*
X016959Y025858D01*
X017057Y025858D02*
X017057Y025267D01*
X016959Y025267D02*
X017156Y025267D01*
X017407Y025267D02*
X017800Y025661D01*
X018445Y025858D02*
X018445Y025267D01*
X016726Y025267D02*
X016529Y025267D01*
X016628Y025267D02*
X016628Y025858D01*
X016726Y025858D02*
X016529Y025858D01*
D11*
X016000Y026163D02*
X016000Y024663D01*
X015750Y024413D01*
X015250Y024413D01*
X015000Y024663D01*
X015000Y026163D01*
X015250Y026413D01*
X015750Y026413D01*
X016000Y026163D01*
X015000Y026163D02*
X014750Y026413D01*
X014250Y026413D01*
X014000Y026163D01*
X014000Y024663D01*
X014250Y024413D01*
X014750Y024413D01*
X015000Y024663D01*
X014000Y024663D02*
X013750Y024413D01*
X013250Y024413D01*
X013000Y024663D01*
X013000Y026163D01*
X013250Y026413D01*
X013750Y026413D01*
X014000Y026163D01*
X013750Y024281D02*
X013250Y024281D01*
X013000Y014663D02*
X013000Y014163D01*
X014000Y014163D02*
X014000Y014663D01*
X018250Y011795D02*
X018750Y011795D01*
X019000Y010663D02*
X019000Y009163D01*
X018000Y009163D02*
X018000Y010663D01*
X017000Y010663D02*
X017000Y009163D01*
X016000Y009163D02*
X016000Y010663D01*
X023750Y009913D02*
X024250Y009913D01*
X026750Y009913D02*
X027250Y009913D01*
X027250Y013913D02*
X026750Y013913D01*
X024250Y013913D02*
X023750Y013913D01*
M02*
