%
M48
M72
T01C0.0600
T02C0.1100
T03C0.1200
%
T01
X16500Y7650
X17500Y7650
X18500Y7650
X18500Y8650
X17500Y8650
X16500Y8650
X13500Y12650
X24000Y11650
X24000Y10650
X24000Y9650
X24000Y8650
X27000Y8650
X27000Y9650
X27000Y10650
X27000Y11650
T02
X7500Y1650
X34500Y1650
X34500Y18150
X7500Y18150
T03
X13500Y15150
X25500Y15150
X21500Y4650
M30
