G75*
G70*
%OFA0B0*%
%FSLAX24Y24*%
%IPPOS*%
%LPD*%
%AMOC8*
5,1,8,0,0,1.08239X$1,22.5*
%
%ADD10R,0.0740X0.0740*%
%ADD11C,0.0740*%
%ADD12C,0.0120*%
D10*
X021500Y002150D03*
X029500Y002150D03*
D11*
X029500Y003150D03*
X029500Y004150D03*
X029500Y005150D03*
X021500Y005150D03*
X021500Y004150D03*
X021500Y003150D03*
D12*
X022090Y003191D02*
X024727Y003191D01*
X024730Y003196D02*
X024555Y002894D01*
X024495Y002550D01*
X024555Y002206D01*
X024721Y001920D01*
X022030Y001920D01*
X022030Y002110D01*
X021540Y002110D01*
X021540Y002190D01*
X022030Y002190D01*
X022030Y002541D01*
X022019Y002582D01*
X021998Y002618D01*
X021968Y002648D01*
X021932Y002669D01*
X021891Y002680D01*
X021864Y002680D01*
X022000Y002816D01*
X022090Y003033D01*
X022090Y003267D01*
X022000Y003484D01*
X021834Y003650D01*
X022000Y003816D01*
X022090Y004033D01*
X022090Y004267D01*
X022000Y004484D01*
X021834Y004650D01*
X022000Y004816D01*
X022090Y005033D01*
X022090Y005267D01*
X022043Y005380D01*
X028957Y005380D01*
X028910Y005267D01*
X028910Y005033D01*
X029000Y004816D01*
X029166Y004650D01*
X029000Y004484D01*
X028910Y004267D01*
X028910Y004033D01*
X029000Y003816D01*
X029166Y003650D01*
X029000Y003484D01*
X028910Y003267D01*
X028910Y003033D01*
X029000Y002816D01*
X029076Y002740D01*
X029039Y002740D01*
X028910Y002611D01*
X028910Y001920D01*
X026279Y001920D01*
X026445Y002206D01*
X026505Y002550D01*
X026445Y002894D01*
X026445Y002894D01*
X026270Y003196D01*
X026003Y003421D01*
X025675Y003540D01*
X025325Y003540D01*
X024997Y003421D01*
X024730Y003196D01*
X024730Y003196D01*
X024730Y003196D01*
X024864Y003309D02*
X022073Y003309D01*
X022024Y003428D02*
X025016Y003428D01*
X024997Y003421D02*
X024997Y003421D01*
X025984Y003428D02*
X028976Y003428D01*
X028927Y003309D02*
X026136Y003309D01*
X026270Y003196D02*
X026270Y003196D01*
X026273Y003191D02*
X028910Y003191D01*
X028910Y003072D02*
X026342Y003072D01*
X026410Y002954D02*
X028943Y002954D01*
X028992Y002835D02*
X026455Y002835D01*
X026476Y002717D02*
X029015Y002717D01*
X028910Y002598D02*
X026497Y002598D01*
X026505Y002550D02*
X026505Y002550D01*
X026493Y002480D02*
X028910Y002480D01*
X028910Y002361D02*
X026472Y002361D01*
X026451Y002243D02*
X028910Y002243D01*
X028910Y002124D02*
X026397Y002124D01*
X026445Y002206D02*
X026445Y002206D01*
X026329Y002006D02*
X028910Y002006D01*
X024671Y002006D02*
X022030Y002006D01*
X021540Y002124D02*
X024603Y002124D01*
X024555Y002206D02*
X024555Y002206D01*
X024549Y002243D02*
X022030Y002243D01*
X022030Y002361D02*
X024528Y002361D01*
X024507Y002480D02*
X022030Y002480D01*
X022010Y002598D02*
X024503Y002598D01*
X024495Y002550D02*
X024495Y002550D01*
X024524Y002717D02*
X021901Y002717D01*
X022008Y002835D02*
X024545Y002835D01*
X024555Y002894D02*
X024555Y002894D01*
X024590Y002954D02*
X022057Y002954D01*
X022090Y003072D02*
X024658Y003072D01*
X026003Y003421D02*
X026003Y003421D01*
X028915Y004020D02*
X022085Y004020D01*
X022090Y004139D02*
X028910Y004139D01*
X028910Y004257D02*
X022090Y004257D01*
X022045Y004376D02*
X028955Y004376D01*
X029010Y004494D02*
X021990Y004494D01*
X021872Y004613D02*
X029128Y004613D01*
X029085Y004731D02*
X021915Y004731D01*
X022014Y004850D02*
X028986Y004850D01*
X028937Y004968D02*
X022063Y004968D01*
X022090Y005087D02*
X028910Y005087D01*
X028910Y005205D02*
X022090Y005205D01*
X022067Y005324D02*
X028933Y005324D01*
X028964Y003902D02*
X022036Y003902D01*
X021967Y003783D02*
X029033Y003783D01*
X029151Y003665D02*
X021849Y003665D01*
X021938Y003546D02*
X029062Y003546D01*
M02*
